<?xml version="1.0" encoding="utf-8"?>
<!-- Generator: Adobe Illustrator 19.2.1, SVG Export Plug-In . SVG Version: 6.00 Build 0)  -->
<svg version="1.1" id="layer" xmlns="http://www.w3.org/2000/svg" xmlns:xlink="http://www.w3.org/1999/xlink" x="0px" y="0px"
	 viewBox="0 0 652 652" style="enable-background:new 0 0 652 652;" xml:space="preserve">
<style type="text/css">
	.st0{fill-rule:evenodd;clip-rule:evenodd;fill:#DB091A;}
</style>
<g>
	<path d="M76.6,357.6v-2c2.8,0,5-0.1,6.7-0.4c1.7-0.3,3-0.8,3.9-1.5c0.9-0.7,1.5-1.7,1.8-2.9c0.3-1.2,0.5-2.7,0.5-4.6v-23.4H55.6
		v23.4c0,1.8,0.2,3.4,0.5,4.6c0.3,1.2,0.9,2.2,1.8,2.9c0.9,0.7,2.2,1.2,3.9,1.5c1.7,0.3,3.9,0.4,6.7,0.4v2H21.4v-2
		c2.8,0,5-0.1,6.7-0.4c1.7-0.3,3-0.8,3.9-1.5c0.9-0.7,1.5-1.7,1.8-2.9c0.3-1.2,0.5-2.7,0.5-4.6v-49.6c0-1.8-0.2-3.4-0.5-4.6
		c-0.3-1.2-0.9-2.2-1.8-2.9c-0.9-0.7-2.2-1.2-3.9-1.5c-1.7-0.3-3.9-0.4-6.7-0.4v-2h47.1v2c-2.8,0-5,0.1-6.7,0.4
		c-1.7,0.3-3,0.8-3.9,1.5c-0.9,0.7-1.5,1.7-1.8,2.9c-0.3,1.2-0.5,2.7-0.5,4.6v21.5h33.9v-21.5c0-1.8-0.2-3.4-0.5-4.6
		c-0.3-1.2-0.9-2.2-1.8-2.9c-0.9-0.7-2.2-1.2-3.9-1.5c-1.7-0.3-3.9-0.4-6.7-0.4v-2h47.1v2c-2.8,0-5,0.1-6.7,0.4
		c-1.7,0.3-3,0.8-3.9,1.5c-0.9,0.7-1.5,1.7-1.8,2.9c-0.3,1.2-0.5,2.7-0.5,4.6v49.6c0,1.8,0.2,3.4,0.5,4.6c0.3,1.2,0.9,2.2,1.8,2.9
		c0.9,0.7,2.2,1.2,3.9,1.5c1.7,0.3,3.9,0.4,6.7,0.4v2H76.6z"/>
	<path d="M220.2,288.1c-1.3,0.5-2.6,1.2-3.9,2.4c-1.3,1.1-2.8,2.6-4.4,4.5c-1.6,1.9-3.4,4.3-5.5,7.2l-19.7,26.4v17.8
		c0,1.8,0.3,3.4,0.8,4.6c0.5,1.2,1.4,2.2,2.5,2.9c1.2,0.7,2.7,1.2,4.6,1.5c1.9,0.3,4.2,0.4,7,0.4v2h-51.3v-2c2.8,0,5.1-0.1,7-0.4
		c1.9-0.3,3.5-0.8,4.7-1.5c1.2-0.7,2.1-1.7,2.6-2.9c0.5-1.2,0.8-2.7,0.8-4.6v-15l-23-33c-1.6-2.3-3.1-4.2-4.3-5.6
		c-1.2-1.4-2.4-2.5-3.5-3.3c-1.1-0.8-2.2-1.3-3.4-1.6c-1.1-0.3-2.5-0.4-3.9-0.4v-2h43.9v2c-2.4,0-4.3,0.1-5.7,0.4
		c-1.4,0.2-2.3,0.6-2.9,1.2c-0.5,0.6-0.6,1.3-0.4,2.3c0.3,0.9,0.9,2.1,1.9,3.5l19.9,29.1l18.9-25.1c1.7-2.2,2.8-4.1,3.2-5.5
		c0.5-1.5,0.4-2.6-0.2-3.5c-0.6-0.9-1.7-1.5-3.3-1.8c-1.6-0.3-3.7-0.5-6.2-0.5v-2h27.9v2C222.9,287.4,221.5,287.6,220.2,288.1"/>
	<path d="M307.6,304.9c-0.6-2.6-1.5-4.9-2.5-6.9c-1-1.9-2.3-3.6-3.9-4.8c-1.6-1.3-3.5-2.2-5.8-2.9c-2.3-0.6-5-0.9-8.2-0.9h-7.6v56.9
		c0,1.8,0.2,3.4,0.5,4.6c0.3,1.2,1,2.2,1.9,2.9c1,0.7,2.3,1.2,4,1.5c1.7,0.3,3.9,0.4,6.7,0.4v2h-47.6v-2c2.8,0,5-0.1,6.7-0.4
		c1.7-0.3,3-0.8,4-1.5c1-0.7,1.6-1.7,1.9-2.9c0.3-1.2,0.5-2.7,0.5-4.6v-56.9h-7.6c-3.2,0-5.9,0.3-8.1,0.9c-2.3,0.6-4.2,1.6-5.7,2.9
		c-1.6,1.3-2.8,2.9-3.8,4.8c-1,1.9-1.8,4.2-2.5,6.9h-2.7v-19.5h82.2v19.5H307.6z"/>
	<path d="M473.2,357.6L444,324.8h-6.2v22c0,1.7,0.2,3.2,0.5,4.3c0.3,1.1,0.9,2,1.8,2.7c0.9,0.7,2.2,1.1,3.8,1.4
		c1.6,0.3,3.8,0.4,6.5,0.4v2H404v-2c2.8,0,5-0.1,6.6-0.4c1.6-0.3,2.9-0.8,3.8-1.5c0.9-0.7,1.4-1.7,1.7-2.9c0.3-1.2,0.4-2.7,0.4-4.6
		v-49.6c0-1.8-0.1-3.4-0.4-4.6c-0.3-1.2-0.8-2.2-1.7-2.9c-0.9-0.7-2.1-1.2-3.8-1.5c-1.6-0.3-3.9-0.4-6.6-0.4v-2h51
		c5.2,0,9.8,0.5,13.9,1.4c4.1,0.9,7.5,2.3,10.3,4c2.8,1.7,5,3.8,6.4,6.2c1.5,2.4,2.2,5.1,2.2,8.1c0,2.1-0.4,4.2-1.2,6.1
		c-0.8,1.9-2,3.7-3.6,5.3c-1.6,1.6-3.7,3-6.3,4.2c-2.6,1.2-5.6,2.1-9.2,2.7l25.6,28.4c0.7,0.8,1.4,1.4,2.1,1.9
		c0.8,0.5,1.6,0.9,2.3,1.2c0.8,0.3,1.5,0.5,2.3,0.6c0.8,0.1,1.5,0.2,2.1,0.2v2H473.2z M464.8,299.2c-0.5-1.9-1.5-3.6-2.9-5
		c-1.4-1.5-3.3-2.6-5.8-3.5c-2.5-0.9-5.6-1.3-9.4-1.3h-9v31.4h10.4c3.3,0,6.1-0.4,8.3-1.3c2.2-0.9,4-2,5.4-3.5
		c1.4-1.5,2.3-3.1,2.9-5c0.6-1.9,0.9-3.9,0.9-5.9C465.6,303,465.4,301.1,464.8,299.2"/>
	<path d="M585.2,308.7c-1-3.4-2.5-6.3-4.4-8.9c-2-2.5-4.3-4.6-6.9-6.3c-2.6-1.7-5.5-2.9-8.6-3.8c-3.1-0.8-6.3-1.3-9.6-1.3
		c-5.1,0-9.6,0.9-13.4,2.6c-3.8,1.7-7,4.1-9.5,7.1c-2.6,3-4.5,6.5-5.7,10.5c-1.3,4-1.9,8.3-1.9,12.9c0,4.6,0.5,8.9,1.6,12.9
		c1.1,4,2.8,7.5,5.2,10.4c2.4,3,5.4,5.3,9.2,7c3.7,1.7,8.2,2.5,13.5,2.5c3.4,0,6.5-0.3,9.2-0.8c2.7-0.5,5.2-1.3,7.6-2.4
		c2.4-1.1,4.8-2.4,7.1-4.1c2.3-1.7,4.9-3.6,7.7-6v6.3c-2,1.6-4.1,3.2-6.3,4.6c-2.1,1.5-4.6,2.7-7.3,3.8c-2.7,1.1-5.8,1.9-9.3,2.5
		c-3.5,0.6-7.6,0.9-12.3,0.9c-6.1,0-11.5-0.5-16.3-1.5c-4.8-1-9.1-2.4-12.8-4.1c-3.7-1.7-6.9-3.8-9.5-6.2c-2.7-2.4-4.8-5-6.5-7.8
		c-1.7-2.8-2.9-5.7-3.7-8.8c-0.8-3.1-1.2-6.2-1.2-9.4c0-3.1,0.6-6.3,1.7-9.3c1.1-3.1,2.8-6,4.9-8.8c2.1-2.8,4.7-5.4,7.7-7.8
		s6.4-4.4,10.2-6.2c3.8-1.7,7.8-3.1,12.2-4.1c4.4-1,9-1.5,13.9-1.5c3.5,0,6.8,0.3,9.8,0.8c3,0.5,5.8,1.2,8.2,1.8
		c2.4,0.7,4.4,1.3,6.1,1.8c1.6,0.5,2.8,0.8,3.4,0.8c1,0,1.8-0.1,2.4-0.4c0.7-0.3,1.2-0.7,1.7-1.2c0.5-0.5,0.9-1.1,1.2-1.7
		c0.3-0.6,0.6-1.3,0.9-2h2.5v25H585.2z"/>
	<path class="st0" d="M356.7,280h3.5c9.8,0.5,17.6,4.2,23.5,8.6c1,0.8,2.9,2.4,2.9,2.4s-34,66.2-36.6,71c-9.6-2-16.7-6.5-22.3-12.8
		c-6.1-6.8-11.2-16.5-10.6-29c0.6-12.5,5.4-21.2,12-27.8C335.8,285.6,344.3,280.8,356.7,280"/>
	<path class="st0" d="M361.2,362.9h-2c11.1-22,22-44.2,33.1-66.2c3.8,5.4,7.1,12,7.9,20.4c0.9,9.1-1.2,17.3-4.5,23.6
		C389.3,353,378,361.3,361.2,362.9"/>
	<path d="M610.7,283.7c1.8,0,3.6,0.4,5.3,1.3c1.7,0.8,3,2.1,4,3.6c1,1.6,1.5,3.2,1.5,5c0,1.7-0.5,3.4-1.4,4.9
		c-0.9,1.6-2.3,2.8-4,3.6c-1.7,0.9-3.5,1.3-5.3,1.3c-1.9,0-3.7-0.4-5.3-1.3c-1.7-0.9-3-2.1-4-3.6c-0.9-1.6-1.4-3.2-1.4-4.9
		c0-1.7,0.5-3.4,1.5-5c1-1.6,2.3-2.8,4-3.6C607.1,284.1,608.9,283.7,610.7,283.7 M610.7,285.6c-1.5,0-2.9,0.3-4.2,1
		c-1.4,0.7-2.4,1.6-3.2,2.9c-0.8,1.3-1.2,2.6-1.2,4c0,1.4,0.4,2.7,1.1,3.9c0.8,1.3,1.8,2.2,3.2,2.9c1.4,0.7,2.8,1.1,4.3,1.1
		c1.5,0,2.9-0.4,4.3-1.1c1.4-0.7,2.4-1.7,3.2-2.9c0.8-1.3,1.2-2.6,1.2-3.9c0-1.4-0.4-2.7-1.2-4c-0.8-1.3-1.9-2.2-3.2-2.9
		C613.6,286,612.2,285.6,610.7,285.6 M605.9,298.8v-10.5h2.3c2.2,0,3.4,0,3.6,0c0.8,0.1,1.4,0.2,1.8,0.4c0.4,0.2,0.8,0.6,1.1,1
		c0.3,0.5,0.4,1,0.4,1.5c0,0.8-0.3,1.4-0.8,1.9c-0.5,0.5-1.3,0.9-2.3,1c0.3,0.1,0.6,0.3,0.8,0.4c0.2,0.1,0.4,0.4,0.8,0.8
		c0.1,0.1,0.4,0.5,0.8,1.3l1.3,2.1h-2.9l-1-1.7c-0.6-1.1-1.2-1.9-1.6-2.2c-0.4-0.3-1-0.4-1.6-0.4h-0.6v4.3H605.9z M608.2,292.9h0.9
		c1.3,0,2.2,0,2.5-0.1c0.3-0.1,0.6-0.3,0.8-0.5c0.2-0.2,0.3-0.5,0.3-0.8c0-0.3-0.1-0.6-0.3-0.8c-0.2-0.2-0.4-0.4-0.8-0.5
		c-0.3-0.1-1.2-0.1-2.5-0.1h-0.9V292.9z"/>
</g>
</svg>
